HIERARCHY
ROOT Hips
{
	OFFSET 0.000000 71.427986 0.000000
	CHANNELS 6 Xposition Yposition Zposition Xrotation Yrotation Zrotation
	JOINT Pelvis
	{
		OFFSET 0.000000 0.000000 0.000000
		CHANNELS 3 Xrotation Yrotation Zrotation
		JOINT LeftUpLeg
		{
			OFFSET 6.797100 -2.508499 -1.318700
			CHANNELS 3 Xrotation Yrotation Zrotation
			JOINT LeftLeg
			{
				OFFSET 0.069008 -29.241863 0.690200
				CHANNELS 3 Xrotation Yrotation Zrotation
				JOINT LeftFoot
				{
					OFFSET -0.069008 -29.568123 -0.266800
					CHANNELS 3 Xrotation Yrotation Zrotation
					JOINT LeftToeBase
					{
						OFFSET 3.145500 -8.631000 16.059900
						CHANNELS 3 Xrotation Yrotation Zrotation
						End Site
						{
							OFFSET 0.000000 18.501587 0.000000
						}
					}
				}
			}
			JOINT Left_ShortSleeve
			{
				OFFSET 0.265923 -10.480953 1.153800
				CHANNELS 3 Xrotation Yrotation Zrotation
				End Site
				{
					OFFSET 1.725763 19.823879 0.000000
				}
			}
		}
		JOINT RightUpLeg
		{
			OFFSET -6.797100 -2.508499 -1.318700
			CHANNELS 3 Xrotation Yrotation Zrotation
			JOINT RightLeg
			{
				OFFSET -0.082453 -29.241932 0.688000
				CHANNELS 3 Xrotation Yrotation Zrotation
				JOINT RightFoot
				{
					OFFSET 0.082453 -29.568058 -0.264600
					CHANNELS 3 Xrotation Yrotation Zrotation
					JOINT RightToeBase
					{
						OFFSET -3.115300 -8.682800 16.113400
						CHANNELS 3 Xrotation Yrotation Zrotation
						End Site
						{
							OFFSET 0.000000 18.567114 0.000000
						}
					}
				}
			}
			JOINT Right_ShortSleeve
			{
				OFFSET -0.265923 -10.480953 1.153800
				CHANNELS 3 Xrotation Yrotation Zrotation
				End Site
				{
					OFFSET -1.725766 19.823910 0.000000
				}
			}
		}
	}
	JOINT Spine
	{
		OFFSET 0.000000 13.368103 0.470500
		CHANNELS 3 Xrotation Yrotation Zrotation
		JOINT Spine1
		{
			OFFSET 0.147000 13.837402 0.538800
			CHANNELS 3 Xrotation Yrotation Zrotation
			JOINT Spine2
			{
				OFFSET 0.168000 16.242897 -1.435500
				CHANNELS 3 Xrotation Yrotation Zrotation
				JOINT Neck
				{
					OFFSET 0.217200 18.631500 -1.679100
					CHANNELS 3 Xrotation Yrotation Zrotation
					JOINT Head
					{
						OFFSET 0.000000 6.599396 1.385900
						CHANNELS 3 Xrotation Yrotation Zrotation
						JOINT Hat
						{
							OFFSET -0.532200 27.220596 -10.096100
							CHANNELS 3 Xrotation Yrotation Zrotation
							End Site
							{
								OFFSET 0.000000 22.029861 0.000000
							}
						}
						JOINT HairD
						{
							OFFSET -10.777400 17.437393 -1.325900
							CHANNELS 3 Xrotation Yrotation Zrotation
							JOINT HairD1
							{
								OFFSET -3.290299 -11.051193 1.062200
								CHANNELS 3 Xrotation Yrotation Zrotation
								End Site
								{
									OFFSET 0.000000 11.579437 0.000000
								}
							}
						}
						JOINT HairB
						{
							OFFSET -10.777400 17.437393 1.467900
							CHANNELS 3 Xrotation Yrotation Zrotation
							JOINT HairB1
							{
								OFFSET -1.561200 -12.956299 3.590200
								CHANNELS 3 Xrotation Yrotation Zrotation
								End Site
								{
									OFFSET 0.000000 13.534866 0.000000
								}
							}
						}
						JOINT HairA
						{
							OFFSET 9.713100 17.437393 1.467900
							CHANNELS 3 Xrotation Yrotation Zrotation
							JOINT HairA1
							{
								OFFSET 1.561200 -12.956299 3.590200
								CHANNELS 3 Xrotation Yrotation Zrotation
								End Site
								{
									OFFSET 0.000000 13.534866 0.000000
								}
							}
						}
						JOINT HairC
						{
							OFFSET 9.713100 17.437393 -1.325900
							CHANNELS 3 Xrotation Yrotation Zrotation
							JOINT HairC1
							{
								OFFSET 3.290300 -11.051193 1.062200
								CHANNELS 3 Xrotation Yrotation Zrotation
								End Site
								{
									OFFSET 0.000000 11.579437 0.000000
								}
							}
						}
					}
				}
				JOINT LeftShoulder
				{
					OFFSET 5.101800 15.108002 -2.763700
					CHANNELS 3 Xrotation Yrotation Zrotation
					JOINT LeftArm
					{
						OFFSET 9.825497 2.506317 -1.597400
						CHANNELS 3 Xrotation Yrotation Zrotation
						JOINT LeftForeArm
						{
							OFFSET 21.966244 0.000000 0.000000
							CHANNELS 3 Xrotation Yrotation Zrotation
							JOINT LeftHand
							{
								OFFSET 33.879036 0.000000 0.000000
								CHANNELS 3 Xrotation Yrotation Zrotation
								JOINT LeftHandThumb1
								{
									OFFSET 6.715286 -2.359680 3.363841
									CHANNELS 3 Xrotation Yrotation Zrotation
									JOINT LeftHandThumb2
									{
										OFFSET 2.507072 -1.447464 1.447461
										CHANNELS 3 Xrotation Yrotation Zrotation
										JOINT LeftHandThumb3
										{
											OFFSET 2.898338 -1.673355 1.673357
											CHANNELS 3 Xrotation Yrotation Zrotation
											End Site
											{
												OFFSET -0.295959 3.727692 -0.131651
											}
										}
									}
								}
								JOINT LeftHandIndex1
								{
									OFFSET 14.190811 -0.254547 3.840278
									CHANNELS 3 Xrotation Yrotation Zrotation
									JOINT LeftHandIndex2
									{
										OFFSET 3.551727 0.000000 -0.000000
										CHANNELS 3 Xrotation Yrotation Zrotation
										JOINT LeftHandIndex3
										{
											OFFSET 2.894196 0.000000 0.000000
											CHANNELS 3 Xrotation Yrotation Zrotation
											End Site
											{
												OFFSET -1.000603 2.690872 0.366626
											}
										}
									}
								}
								JOINT LeftHandMiddle1
								{
									OFFSET 13.776489 0.000000 0.000000
									CHANNELS 3 Xrotation Yrotation Zrotation
									JOINT LeftHandMiddle2
									{
										OFFSET 3.438232 0.000000 0.000000
										CHANNELS 3 Xrotation Yrotation Zrotation
										JOINT LeftHandMiddle3
										{
											OFFSET 3.691551 0.000000 0.000000
											CHANNELS 3 Xrotation Yrotation Zrotation
											End Site
											{
												OFFSET -1.082298 3.499527 0.457670
											}
										}
									}
								}
								JOINT LeftHandRing1
								{
									OFFSET 13.966164 -0.268127 -3.067488
									CHANNELS 3 Xrotation Yrotation Zrotation
									JOINT LeftHandRing2
									{
										OFFSET 3.162567 0.000000 0.000000
										CHANNELS 3 Xrotation Yrotation Zrotation
										JOINT LeftHandRing3
										{
											OFFSET 3.324348 0.000000 0.000000
											CHANNELS 3 Xrotation Yrotation Zrotation
											End Site
											{
												OFFSET -0.861900 3.184998 0.405154
											}
										}
									}
								}
								JOINT LeftHandPinky1
								{
									OFFSET 13.131393 -0.168503 -5.746925
									CHANNELS 3 Xrotation Yrotation Zrotation
									JOINT LeftHandPinky2
									{
										OFFSET 2.849182 0.000000 0.000000
										CHANNELS 3 Xrotation Yrotation Zrotation
										JOINT LeftHandPinky3
										{
											OFFSET 2.805038 0.000000 0.000000
											CHANNELS 3 Xrotation Yrotation Zrotation
											End Site
											{
												OFFSET -0.882500 2.642609 0.325652
											}
										}
									}
								}
							}
							JOINT Left_Sleeve
							{
								OFFSET 6.592125 -0.646545 0.805568
								CHANNELS 3 Xrotation Yrotation Zrotation
								End Site
								{
									OFFSET -0.000179 20.275787 -0.000000
								}
							}
						}
					}
				}
				JOINT RightShoulder
				{
					OFFSET -5.731700 15.108002 -2.763700
					CHANNELS 3 Xrotation Yrotation Zrotation
					JOINT RightArm
					{
						OFFSET -9.825497 2.506317 -1.597400
						CHANNELS 3 Xrotation Yrotation Zrotation
						JOINT RightForeArm
						{
							OFFSET -21.966242 0.000000 0.000000
							CHANNELS 3 Xrotation Yrotation Zrotation
							JOINT RightHand
							{
								OFFSET -33.879032 0.000000 0.000000
								CHANNELS 3 Xrotation Yrotation Zrotation
								JOINT RightHandThumb1
								{
									OFFSET -6.715286 -2.359680 3.363841
									CHANNELS 3 Xrotation Yrotation Zrotation
									JOINT RightHandThumb2
									{
										OFFSET -2.507072 -1.447464 1.447461
										CHANNELS 3 Xrotation Yrotation Zrotation
										JOINT RightHandThumb3
										{
											OFFSET -2.898338 -1.673355 1.673357
											CHANNELS 3 Xrotation Yrotation Zrotation
											End Site
											{
												OFFSET 0.295959 3.727692 -0.131651
											}
										}
									}
								}
								JOINT RightHandIndex1
								{
									OFFSET -14.190811 -0.254547 3.840278
									CHANNELS 3 Xrotation Yrotation Zrotation
									JOINT RightHandIndex2
									{
										OFFSET -3.551727 0.000000 -0.000000
										CHANNELS 3 Xrotation Yrotation Zrotation
										JOINT RightHandIndex3
										{
											OFFSET -2.894196 0.000000 0.000000
											CHANNELS 3 Xrotation Yrotation Zrotation
											End Site
											{
												OFFSET 1.000603 2.690872 0.366626
											}
										}
									}
								}
								JOINT RightHandMiddle1
								{
									OFFSET -13.776489 0.000000 0.000000
									CHANNELS 3 Xrotation Yrotation Zrotation
									JOINT RightHandMiddle2
									{
										OFFSET -3.438232 0.000000 0.000000
										CHANNELS 3 Xrotation Yrotation Zrotation
										JOINT RightHandMiddle3
										{
											OFFSET -3.691551 0.000000 0.000000
											CHANNELS 3 Xrotation Yrotation Zrotation
											End Site
											{
												OFFSET 1.082298 3.499527 0.457670
											}
										}
									}
								}
								JOINT RightHandRing1
								{
									OFFSET -13.966164 -0.268127 -3.067488
									CHANNELS 3 Xrotation Yrotation Zrotation
									JOINT RightHandRing2
									{
										OFFSET -3.162567 0.000000 0.000000
										CHANNELS 3 Xrotation Yrotation Zrotation
										JOINT RightHandRing3
										{
											OFFSET -3.324348 0.000000 0.000000
											CHANNELS 3 Xrotation Yrotation Zrotation
											End Site
											{
												OFFSET 0.861900 3.184998 0.405154
											}
										}
									}
								}
								JOINT RightHandPinky1
								{
									OFFSET -13.131393 -0.168503 -5.746925
									CHANNELS 3 Xrotation Yrotation Zrotation
									JOINT RightHandPinky2
									{
										OFFSET -2.849182 0.000000 0.000000
										CHANNELS 3 Xrotation Yrotation Zrotation
										JOINT RightHandPinky3
										{
											OFFSET -2.805038 0.000000 0.000000
											CHANNELS 3 Xrotation Yrotation Zrotation
											End Site
											{
												OFFSET 0.882500 2.642609 0.325652
											}
										}
									}
								}
							}
							JOINT Right_Sleeve
							{
								OFFSET -6.592125 -0.646545 0.805568
								CHANNELS 3 Xrotation Yrotation Zrotation
								End Site
								{
									OFFSET 0.000179 20.275787 -0.000000
								}
							}
						}
					}
				}
				JOINT Bind_Right_JacketString
				{
					OFFSET -3.534800 11.969597 7.200700
					CHANNELS 3 Xrotation Yrotation Zrotation
					JOINT Bind_Right_JacketString1
					{
						OFFSET -0.319900 -6.102600 2.794100
						CHANNELS 3 Xrotation Yrotation Zrotation
						End Site
						{
							OFFSET 0.000000 6.719452 0.000000
						}
					}
				}
				JOINT Bind_Left_JacketString
				{
					OFFSET 2.904800 11.969597 7.200700
					CHANNELS 3 Xrotation Yrotation Zrotation
					JOINT Bind_Left_JacketString1
					{
						OFFSET 0.364800 -5.904503 3.186800
						CHANNELS 3 Xrotation Yrotation Zrotation
						End Site
						{
							OFFSET 0.000000 6.719513 0.000000
						}
					}
				}
				JOINT HairE
				{
					OFFSET 5.915200 17.612701 -11.592200
					CHANNELS 3 Xrotation Yrotation Zrotation
					JOINT HairE1
					{
						OFFSET 0.289200 -7.171898 -1.284500
						CHANNELS 3 Xrotation Yrotation Zrotation
						End Site
						{
							OFFSET 0.000000 7.291756 0.000000
						}
					}
				}
				JOINT HairF
				{
					OFFSET -0.864800 17.612701 -11.592200
					CHANNELS 3 Xrotation Yrotation Zrotation
					JOINT HairF1
					{
						OFFSET 0.000000 -14.087097 -2.127501
						CHANNELS 3 Xrotation Yrotation Zrotation
						End Site
						{
							OFFSET 0.000000 14.246841 0.000000
						}
					}
				}
				JOINT HairG
				{
					OFFSET -8.087700 17.612701 -11.592200
					CHANNELS 3 Xrotation Yrotation Zrotation
					JOINT HairG1
					{
						OFFSET -0.293600 -6.081398 -0.910100
						CHANNELS 3 Xrotation Yrotation Zrotation
						End Site
						{
							OFFSET 0.000000 6.156120 0.000000
						}
					}
				}
			}
		}
	}
	JOINT Pouch
	{
		OFFSET 0.000000 4.394501 10.847300
		CHANNELS 3 Xrotation Yrotation Zrotation
		End Site
		{
			OFFSET 0.000000 21.880577 0.000000
		}
	}
	JOINT Bag
	{
		OFFSET -13.229000 4.813004 -0.593300
		CHANNELS 3 Xrotation Yrotation Zrotation
		End Site
		{
			OFFSET 0.000000 21.880577 0.000000
		}
	}
	JOINT OccupyGuyFacialAnim_Joint
	{
		OFFSET 1.000000 -70.206398 -1.655000
		CHANNELS 3 Xrotation Yrotation Zrotation
		End Site
		{
			OFFSET 0.000000 21.880577 0.000000
		}
	}
}
MOTION
Frames: 5
Frame Time: 0.016667
-0.737150 60.645088 0.759598 11.682514 -49.446116 11.201256 -0.000000 0.000001 -0.000000 -62.355099 29.780800 41.562425 46.271670 -20.448690 3.240062 -1.174245 1.237429 -9.131609 0.000000 -0.000000 0.000000 0.000002 -0.000000 -0.000000 -32.413575 -1.686977 -23.577144 54.930266 2.258462 -6.882773 -29.998379 -3.201411 23.245383 -0.000000 0.000002 -0.000000 0.000000 0.000000 -0.000000 10.969173 2.808527 -1.964491 6.100710 5.566540 -4.284682 -5.786917 6.328148 -3.046186 2.319054 9.363315 -0.265467 -4.147094 23.161907 -3.523281 -0.000001 0.000000 0.000000 -0.000001 0.000000 0.000000 -0.000001 0.000000 0.000000 -0.000001 0.000000 0.000000 -0.000001 -0.000000 0.000000 -0.000001 0.000000 0.000000 -0.000001 -0.000000 0.000000 -0.000001 0.000000 0.000000 -0.000001 0.000000 0.000000 -1.875341 -16.181674 -2.870469 -10.644677 2.164654 -45.510636 -22.862381 -25.786220 -15.871630 2.491019 -2.511862 6.860442 18.457973 -9.513753 13.216604 -1.150204 11.255324 -8.400842 -0.000000 0.000002 -0.000002 -1.232784 -5.771977 -0.192356 0.133934 -0.197642 -4.602133 0.000001 -0.000002 -0.000000 1.884736 4.663371 -4.597391 0.476686 -1.009851 -12.986412 0.000003 0.000002 -0.000003 3.024638 7.938883 -14.103475 -0.708020 -0.566198 -18.895737 -0.000002 0.000003 0.000001 2.010393 6.305960 -22.386529 -0.815370 -0.210768 -16.746478 -0.000002 -0.000002 0.000003 -0.000002 -0.000002 -0.000000 -5.074635 24.343810 1.482712 6.642355 -34.733800 57.610378 -21.031968 44.833792 19.961636 -0.087218 35.608501 7.474239 55.149577 18.649502 -29.698298 -0.442550 -14.180550 7.313155 -0.000001 -0.000001 0.000002 5.673411 7.584998 36.844171 1.050419 3.824529 68.900257 -0.000000 0.000003 -0.000001 -0.125706 1.886089 45.000770 -1.169024 3.204656 68.417663 0.000001 -0.000003 0.000004 -5.312018 1.216683 58.508794 -0.745218 1.667562 48.011275 0.000000 -0.000002 0.000002 -7.756803 -9.376471 47.263990 -0.526043 1.541599 45.600511 0.000001 -0.000001 0.000000 -0.000001 0.000001 -0.000001 -0.000001 -0.000001 0.000001 0.000001 0.000000 -0.000000 -0.000001 -0.000001 0.000001 -0.000001 -0.000001 0.000001 -0.000001 -0.000001 0.000001 0.000001 0.000000 -0.000000 -0.000001 -0.000001 0.000001 -0.000001 -0.000001 0.000001 -0.000001 -0.000001 0.000001 0.000001 0.000000 -0.000000 -0.000000 0.000001 -0.000000 -0.000000 0.000001 -0.000000 -0.000000 0.000001 -0.000000 
-0.273471 60.725197 1.457655 11.466709 -50.043645 10.987669 -0.000000 -0.000003 0.000001 -62.310443 29.891575 41.650036 47.700559 -19.965437 3.067532 -2.446257 1.232892 -8.261555 0.000000 -0.000000 -0.000000 0.000003 -0.000000 -0.000000 -31.580452 -1.433811 -23.862856 53.383782 2.473312 -7.166606 -28.789978 -3.782567 24.088759 0.000000 -0.000002 -0.000000 0.000001 0.000000 -0.000000 10.932230 2.790271 -1.911904 6.124973 5.554793 -4.185741 -5.749231 6.252876 -2.945707 2.454506 9.259358 0.283437 -4.037796 23.425826 -4.188947 0.000000 0.000000 0.000000 0.000000 0.000000 0.000000 0.000000 0.000000 0.000000 0.000000 0.000000 0.000000 0.000000 0.000000 0.000000 0.000000 0.000000 0.000000 0.000000 0.000000 0.000000 0.000000 0.000000 0.000000 0.000000 0.000000 0.000000 -1.890577 -15.766092 -3.028447 -10.843719 2.172865 -45.626982 -22.239289 -25.278190 -15.651660 2.395515 -2.217320 6.686392 18.445868 -9.516976 13.239970 -1.175397 11.215335 -8.387401 0.000003 0.000001 -0.000001 -1.232775 -5.771110 -0.170620 0.134041 -0.196786 -4.580406 0.000000 0.000002 -0.000002 1.839196 4.652782 -4.567414 0.476926 -1.008879 -12.960890 0.000001 0.000001 -0.000001 3.025062 7.940563 -14.060278 -0.707453 -0.564573 -18.852212 -0.000002 -0.000001 -0.000002 2.032034 6.337676 -22.325998 -0.814699 -0.208487 -16.683552 0.000000 -0.000000 0.000003 -0.000002 0.000000 -0.000000 -5.114990 24.192844 1.600719 7.019140 -34.769406 57.282860 -21.780859 43.486981 20.029994 -0.160464 36.453160 8.087207 55.149577 18.649509 -29.698298 -0.442550 -14.180544 7.313159 -0.000001 -0.000001 0.000000 5.673416 7.585001 36.844171 1.050418 3.824526 68.900257 0.000002 0.000002 -0.000001 -0.125702 1.886093 45.000773 -1.169024 3.204659 68.417663 0.000001 -0.000001 0.000003 -5.312015 1.216682 58.508794 -0.745218 1.667563 48.011275 0.000001 -0.000000 0.000001 -7.756799 -9.376472 47.263994 -0.526046 1.541596 45.600515 -0.000003 -0.000001 -0.000003 0.000002 0.000003 -0.000002 -0.000000 -0.000001 0.000001 0.000001 0.000002 -0.000000 -0.000000 -0.000001 0.000001 -0.000000 -0.000001 0.000001 -0.000000 -0.000001 0.000001 0.000001 0.000002 -0.000000 -0.000000 -0.000001 0.000001 -0.000000 -0.000001 0.000001 -0.000000 -0.000001 0.000001 0.000001 0.000002 -0.000000 -0.000000 -0.000003 0.000001 -0.000000 -0.000003 0.000001 -0.000000 -0.000003 0.000001 
0.286451 60.846786 2.156415 11.280118 -50.810914 10.823103 -0.000000 -0.000000 -0.000000 -62.134914 30.129529 41.686198 48.870666 -19.437994 2.839973 -3.620062 1.281927 -7.391678 -0.000000 0.000002 -0.000000 0.000000 -0.000000 -0.000000 -30.774374 -1.168497 -24.205021 51.597554 2.758228 -7.399292 -27.454113 -4.193865 24.923531 0.000000 -0.000002 0.000000 -0.000000 0.000000 -0.000002 10.833920 2.780928 -1.853744 6.211054 5.531383 -4.085920 -5.634570 6.080622 -2.847558 2.506702 8.998889 0.963301 -3.946310 23.543604 -4.816439 0.000001 0.000000 -0.000000 0.000001 0.000000 -0.000000 0.000001 0.000000 -0.000000 0.000001 0.000000 -0.000000 0.000001 0.000000 -0.000000 0.000001 0.000000 -0.000000 0.000001 0.000000 -0.000000 0.000001 0.000000 -0.000000 0.000001 0.000000 -0.000000 -1.898947 -15.838089 -3.026467 -10.916590 3.036751 -45.852699 -21.654538 -24.915512 -15.679266 2.318325 -2.084219 6.697813 18.431665 -9.520757 13.267327 -1.205840 11.169475 -8.368930 -0.000003 0.000001 -0.000000 -1.232803 -5.770123 -0.145202 0.134128 -0.195824 -4.554966 -0.000000 -0.000001 0.000001 1.785770 4.640261 -4.532359 0.477186 -1.007143 -12.931016 0.000001 0.000001 -0.000004 3.025559 7.942503 -14.009667 -0.706797 -0.562730 -18.801286 0.000001 0.000000 0.000002 2.057243 6.374979 -22.255036 -0.813894 -0.205792 -16.609768 -0.000000 -0.000001 0.000001 -0.000000 0.000002 -0.000002 -5.162249 24.117347 1.733595 7.217155 -34.742898 57.034805 -22.411811 42.270070 20.016520 -0.144755 37.048886 8.544448 55.149574 18.649507 -29.698294 -0.442550 -14.180550 7.313155 -0.000001 0.000002 0.000002 5.673414 7.584996 36.844175 1.050418 3.824532 68.900257 -0.000000 0.000002 -0.000001 -0.125706 1.886091 45.000773 -1.169024 3.204656 68.417663 0.000001 -0.000002 0.000001 -5.312014 1.216674 58.508794 -0.745218 1.667561 48.011275 0.000004 0.000000 -0.000004 -7.756800 -9.376471 47.263994 -0.526044 1.541596 45.600511 -0.000001 0.000000 -0.000001 -0.000002 -0.000000 -0.000001 -0.000001 -0.000001 0.000000 0.000001 -0.000002 0.000001 -0.000001 -0.000001 0.000001 -0.000001 -0.000001 0.000001 -0.000001 -0.000001 0.000000 0.000001 -0.000002 0.000001 -0.000001 -0.000001 0.000001 -0.000001 -0.000001 0.000001 -0.000001 -0.000001 0.000000 0.000001 -0.000002 0.000001 -0.000000 -0.000000 -0.000000 -0.000000 -0.000000 -0.000000 -0.000000 -0.000000 -0.000000 
0.931653 60.987526 2.937284 11.177348 -51.800797 10.723982 -0.000000 0.000002 -0.000000 -61.906874 30.428073 41.684194 50.084698 -18.781429 2.600500 -4.923608 1.414489 -6.477437 0.000000 0.000000 -0.000000 0.000000 0.000000 -0.000000 -29.968319 -0.907985 -24.713364 49.463970 3.210836 -7.518131 -25.991388 -4.437860 25.791720 0.000000 -0.000002 0.000000 -0.000002 -0.000001 -0.000001 10.678234 2.760337 -1.779868 6.304668 5.446444 -3.965669 -5.493479 5.769523 -2.734775 2.557822 8.625430 1.729380 -3.941155 23.486697 -5.405072 0.000000 -0.000000 -0.000000 0.000000 -0.000000 -0.000000 0.000000 -0.000000 -0.000000 0.000000 -0.000000 -0.000000 0.000000 -0.000000 -0.000000 0.000000 -0.000000 -0.000000 0.000000 -0.000000 -0.000000 0.000000 -0.000000 -0.000000 0.000000 -0.000000 -0.000000 -1.912188 -15.416606 -3.171548 -11.148245 3.692029 -46.007519 -20.985189 -24.405056 -15.663050 2.270425 -1.926653 6.652089 18.404114 -9.528065 13.320416 -1.265159 11.080868 -8.332365 -0.000001 -0.000002 -0.000000 -1.232752 -5.768245 -0.095805 0.134288 -0.193898 -4.505595 -0.000003 0.000000 0.000002 1.682323 4.615613 -4.464376 0.477663 -1.003003 -12.873078 0.000003 -0.000000 -0.000001 3.030800 7.946173 -13.912209 -0.705571 -0.559051 -18.702499 0.000002 -0.000000 0.000001 2.105543 6.447776 -22.117577 -0.813384 -0.200599 -16.466589 0.000002 0.000002 0.000001 0.000000 0.000002 0.000001 -5.215425 24.184388 1.892620 6.918586 -34.742181 56.575294 -22.804875 40.833521 19.736808 -0.060775 37.536589 9.176380 55.149580 18.649505 -29.698294 -0.442553 -14.180546 7.313159 -0.000000 -0.000004 0.000001 5.673412 7.584998 36.844175 1.050419 3.824530 68.900257 0.000001 -0.000000 -0.000003 -0.125702 1.886088 45.000773 -1.169022 3.204657 68.417663 -0.000001 -0.000000 0.000003 -5.312015 1.216676 58.508801 -0.745218 1.667567 48.011278 0.000001 -0.000000 0.000002 -7.756797 -9.376473 47.263994 -0.526041 1.541600 45.600511 0.000003 0.000002 -0.000004 0.000000 -0.000001 0.000000 0.000002 0.000000 -0.000000 0.000002 0.000002 -0.000000 0.000002 0.000000 -0.000001 0.000002 0.000000 -0.000001 0.000002 0.000000 -0.000000 0.000002 0.000002 0.000000 0.000002 0.000000 -0.000001 0.000002 0.000000 -0.000001 0.000002 0.000000 -0.000000 0.000002 0.000002 0.000000 -0.000000 0.000002 -0.000000 -0.000000 0.000002 -0.000000 -0.000000 0.000002 -0.000000 
1.609894 61.130142 3.665949 11.125226 -52.790013 10.672591 0.000001 0.000002 -0.000000 -61.659840 30.764357 41.608242 51.080765 -18.065789 2.340609 -6.078266 1.519486 -5.608439 0.000000 -0.000000 -0.000000 0.000001 0.000000 -0.000000 -29.245408 -0.642702 -25.251385 47.324584 3.697150 -7.540427 -24.638465 -4.675378 26.578158 0.000000 0.000001 0.000000 -0.000002 0.000002 -0.000000 10.470873 2.734052 -1.689323 6.431335 5.341321 -3.845165 -5.301526 5.369790 -2.622323 2.568980 8.163875 2.542380 -4.004229 23.257201 -5.915165 0.000001 0.000001 -0.000000 0.000001 0.000001 -0.000000 0.000001 0.000001 -0.000000 0.000001 0.000001 -0.000000 0.000001 0.000000 -0.000000 0.000001 0.000001 -0.000000 0.000001 0.000000 -0.000000 0.000001 0.000001 -0.000000 0.000001 0.000001 -0.000000 -1.914489 -15.246481 -3.208162 -11.410819 4.730167 -46.239267 -20.337913 -23.776891 -15.687840 2.262087 -1.887500 6.695188 18.364377 -9.538595 13.396880 -1.350758 10.953335 -8.279389 -0.000001 0.000001 0.000001 -1.232753 -5.765510 -0.024654 0.134515 -0.191095 -4.434424 0.000001 0.000001 -0.000002 1.533177 4.580051 -4.366580 0.478460 -0.997786 -12.789505 0.000004 -0.000001 -0.000003 3.039569 7.951507 -13.771927 -0.703762 -0.553782 -18.560081 -0.000001 -0.000002 0.000003 2.175077 6.552802 -21.919578 -0.813120 -0.193104 -16.260377 -0.000004 -0.000000 -0.000002 0.000003 0.000000 0.000000 -5.246647 23.749258 2.050737 6.457518 -34.285412 56.086047 -23.251132 39.750386 19.622490 0.220763 37.653050 9.654135 55.149580 18.649505 -29.698298 -0.442554 -14.180550 7.313157 -0.000002 -0.000002 -0.000000 5.673415 7.584999 36.844178 1.050419 3.824529 68.900257 -0.000001 0.000001 0.000000 -0.125703 1.886088 45.000773 -1.169022 3.204654 68.417663 -0.000001 -0.000000 -0.000003 -5.312017 1.216677 58.508794 -0.745216 1.667565 48.011278 0.000001 -0.000000 0.000002 -7.756801 -9.376468 47.263994 -0.526044 1.541597 45.600508 -0.000003 -0.000000 -0.000003 -0.000001 0.000000 -0.000002 0.000002 0.000001 0.000000 0.000002 -0.000002 0.000000 0.000002 0.000001 -0.000000 0.000002 0.000001 -0.000000 0.000002 0.000001 0.000000 0.000002 -0.000002 0.000000 0.000002 0.000001 -0.000000 0.000002 0.000001 -0.000000 0.000002 0.000001 0.000000 0.000002 -0.000002 0.000000 0.000001 0.000002 -0.000000 0.000001 0.000002 -0.000000 0.000001 0.000002 -0.000000 
